<?xml version="1.0" standalone="no"?>
<!DOCTYPE svg PUBLIC "-//W3C//DTD SVG 20010904//EN"
 "http://www.w3.org/TR/2001/REC-SVG-20010904/DTD/svg10.dtd">
<svg version="1.0" xmlns="http://www.w3.org/2000/svg"
 width="500.000000pt" height="500.000000pt" viewBox="0 0 500.000000 500.000000"
 preserveAspectRatio="xMidYMid meet">
<metadata>
Created by potrace 1.15, written by Peter Selinger 2001-2017
</metadata>
<g transform="translate(0.000000,500.000000) scale(0.100000,-0.100000)"
fill="#f4b042" stroke="none">
<path d="M1940 3829 c-190 -100 -268 -157 -400 -289 -291 -290 -534 -727 -586
-1050 -21 -133 -29 -507 -15 -733 29 -480 126 -757 386 -1109 166 -224 528
-538 621 -538 33 0 -4 103 -150 419 -132 285 -201 535 -252 916 -21 155 -30
635 -15 821 48 604 168 994 434 1411 89 140 127 205 127 218 0 11 -19 3 -150
-66z"/>
<path d="M2901 3863 c13 -21 65 -103 117 -183 239 -374 350 -680 411 -1136 33
-247 44 -450 38 -709 -13 -540 -98 -931 -293 -1348 -91 -194 -134 -298 -141
-343 -5 -29 -3 -34 13 -34 74 0 412 280 559 463 214 265 343 527 400 811 36
184 46 324 46 646 0 497 -24 610 -196 950 -161 316 -386 584 -630 747 -63 42
-317 173 -336 173 -6 0 0 -17 12 -37z"/>
<path d="M2395 3827 c-108 -36 -222 -129 -310 -252 -390 -544 -510 -1725 -269
-2644 110 -422 304 -736 521 -843 61 -30 76 -33 153 -33 114 0 187 34 294 136
474 450 657 1730 391 2745 -89 341 -216 597 -374 755 -103 104 -177 141 -286
146 -48 2 -96 -2 -120 -10z"/>
<path d="M3472 3773 c8 -10 77 -88 153 -173 313 -353 447 -586 529 -920 57
-233 81 -566 66 -890 -18 -375 -71 -618 -190 -866 -72 -152 -157 -281 -301
-454 -123 -150 -149 -186 -149 -214 0 -29 47 -15 197 59 159 79 293 176 452
330 261 252 460 539 536 770 120 370 105 885 -37 1220 -73 172 -225 388 -403
573 -213 222 -391 353 -672 495 -175 89 -209 102 -181 70z"/>
<path d="M1288 3680 c-229 -103 -404 -231 -598 -438 -247 -265 -425 -539 -493
-757 -163 -524 -55 -1073 305 -1553 95 -126 271 -308 393 -405 120 -97 304
-218 390 -259 72 -33 135 -47 135 -29 0 20 -48 88 -169 239 -205 255 -294 409
-369 632 -85 258 -116 488 -116 865 0 281 11 420 50 615 71 357 182 579 453
905 168 203 174 253 19 185z"/>
</g>
<g transform="translate(0.000000,500.000000) scale(0.100000,-0.100000)"
fill="#55a019" stroke="none">
<path d="M2715 4921 c-59 -34 -150 -127 -188 -191 -64 -110 -101 -253 -116
-457 -9 -116 -17 -147 -67 -260 -4 -9 3 -9 33 -1 49 14 217 14 266 0 20 -6 37
-8 37 -6 0 3 -9 22 -19 42 -27 53 -51 151 -51 206 0 26 9 71 19 102 35 99 100
155 230 199 46 15 88 36 102 51 54 57 16 194 -82 296 -55 58 -89 62 -164 19z"/>
</g>
</svg>
