<?xml version="1.0" standalone="no"?>
<!DOCTYPE svg PUBLIC "-//W3C//DTD SVG 20010904//EN"
 "http://www.w3.org/TR/2001/REC-SVG-20010904/DTD/svg10.dtd">
<svg version="1.0" xmlns="http://www.w3.org/2000/svg"
 width="83.000000pt" height="67.000000pt" viewBox="0 0 83.000000 67.000000"
 preserveAspectRatio="xMidYMid meet">
<metadata>
Created by potrace 1.15, written by Peter Selinger 2001-2017
</metadata>
<g transform="translate(0.000000,67.000000) scale(0.100000,-0.100000)"
fill="#f4b042" stroke="none">
<path d="M309 630 c-48 -25 -96 -82 -128 -150 -22 -47 -26 -68 -25 -150 0
-102 17 -158 70 -227 26 -35 92 -89 99 -82 2 3 -9 30 -24 61 -38 74 -55 180
-48 288 7 102 26 169 66 233 17 26 30 47 28 47 -1 -1 -18 -9 -38 -20z"/>
<path d="M510 603 c41 -64 60 -131 67 -233 7 -108 -10 -214 -48 -288 -15 -31
-26 -58 -24 -61 7 -7 73 47 99 82 53 69 70 125 70 227 0 81 -3 103 -25 150
-32 70 -81 125 -130 151 l-39 19 30 -47z"/>
<path d="M364 615 c-109 -109 -109 -471 0 -580 101 -101 210 127 179 375 -24
184 -106 278 -179 205z"/>
<path d="M618 585 c63 -72 86 -140 86 -255 0 -111 -22 -181 -80 -248 -40 -47
-39 -50 14 -23 48 25 114 94 143 151 33 63 33 176 0 240 -31 61 -96 127 -155
157 l-50 25 42 -47z"/>
<path d="M189 600 c-56 -29 -135 -122 -154 -181 -34 -101 -5 -210 79 -297 35
-38 101 -82 121 -82 4 0 -10 19 -29 42 -58 67 -80 137 -80 248 0 111 22 181
80 248 39 46 36 50 -17 22z"/>
</g>
</svg>
